<svg id="_3DUnity" data-name="3DUnity" xmlns="http://www.w3.org/2000/svg" viewBox="0 0 565.42 579.68"><title>3D_Icon</title><path d="M7508.87,7469.91c-12.47-3.3-24.52-6.45-36.54-9.66q-95-25.38-190-50.72a9.89,9.89,0,0,1-6.76-5.11c-9.68-17.28-19.64-34.4-29.27-51.71-1.85-3.33-3.81-4.68-7.73-4.61-20,.33-40,.26-60,.5a9.94,9.94,0,0,1-7.83-3.28q-32.64-32.76-65.46-65.33-48-47.82-96-95.62a50.76,50.76,0,0,0-4.65-3.64c1.73-1.91,2.75-3.14,3.88-4.26q81.24-81,162.6-161.89a11.45,11.45,0,0,1,7.29-3c20.16-.13,40.32,0,60.48.27,3.4,0,5.34-.95,7.05-4q14.67-26.41,29.89-52.51a10.73,10.73,0,0,1,5.85-4.55q111.32-29.92,222.73-59.53c1.27-.34,2.56-.6,4.43-1,.55,1.85,1.09,3.52,1.55,5.21q29.65,110.35,59.14,220.75a12.11,12.11,0,0,1-1.21,8.26q-14.75,25.79-30.12,51.23c-1.86,3.09-2,5.32-.1,8.52,10.16,16.81,20,33.83,30.06,50.68a11.53,11.53,0,0,1,1.41,9.81q-29.75,110.07-59.24,220.21C7510,7466.33,7509.53,7467.73,7508.87,7469.91Zm-33.32-464.68c-1.43,2.25-2.33,3.55-3.12,4.92q-47.81,82.51-95.67,165c-2.11,3.62-2.09,6.21,0,9.86q47.88,82.18,95.46,164.53c.86,1.48,1.75,2.93,3.09,5.18.84-2.41,1.39-3.76,1.79-5.16q23.22-82.86,46.3-165.76a17.07,17.07,0,0,0-.3-8.66q-19.23-69.47-38.73-138.86C7481.57,7026.23,7478.68,7016.22,7475.54,7005.23Zm-353.72,146.15c2.26.12,3.23.22,4.19.22q97.23,0,194.46.1c3.5,0,4.9-1.59,6.42-4.22q45.6-78.91,91.32-157.75c2.39-4.13,4.71-8.29,7.46-13.13-2.26.44-3.71.65-5.13,1q-83.38,21.39-166.72,42.89a17.18,17.18,0,0,0-7.55,4.3q-45.73,46.16-91.21,92.56C7144.23,7128.39,7133.45,7139.48,7121.82,7151.38Zm.12,57c1.89,2.18,2.9,3.48,4,4.64q60.09,61.13,120.28,122.16a17.17,17.17,0,0,0,7.56,4.3q65.45,17,131,33.69c13.33,3.42,26.68,6.78,40.88,10.38-1.2-2.23-1.93-3.67-2.73-5.06q-48-83-96-166c-1.83-3.17-3.82-4.22-7.44-4.21q-95.74.18-191.48.08Z" transform="translate(-7004.73 -6890.23)"/></svg>