<svg id="Layer_8" data-name="Layer 8" xmlns="http://www.w3.org/2000/svg" viewBox="0 0 458.63 444.83"><title>camera_icon</title><path d="M6938.15,7080.66h154.22l.14-.66a21.47,21.47,0,0,0-2.52-.76,57.42,57.42,0,0,1-35.29-21.15c-29.09-36.32-32-76-14.52-117.72,6.42-15.31,17.14-27.49,31.46-36.63a39.66,39.66,0,0,1,12.73-5.57c7.68-1.61,15.35-4.55,23.54-2,4.22,1.31,8.65,2,12.91,3.17,9.94,2.75,17.68,8.86,24.49,15.85,16.4,16.81,24.38,37.22,26.85,59.8,2.45,22.34-.75,43.83-11.18,64.09-6.8,13.21-15.88,24.56-29.28,32.55-6.19,3.69-12.48,6.61-19.68,7.7a7.1,7.1,0,0,0-1.45.37c-.17.06-.25.35-.66,1,1.52.1,2.8.25,4.08.25,18.18,0,36.39.68,54.52-.2,18.46-.9,27.47,11.33,31.2,24.12a59.17,59.17,0,0,1,1.9,15.6c.23,16,.09,32.06.09,48.09,0,1.23,0,2.47,0,4.6l114.45-92.31v258.64l-114.45-92.26c0,2.21,0,3.59,0,5q0,24,0,48.09c0,9.58-1.69,18.74-7.4,26.89-4,5.75-8.92,10.47-16.49,11.56a89.5,89.5,0,0,1-12.54,1.23q-137.64.1-275.29,0c-13.87,0-22.12-6.11-27.89-17.62a45.66,45.66,0,0,1-4.55-20.85q0-91.33,0-182.66c0-10,2.35-19.3,8.77-27.52,5.35-6.85,12.08-10.57,21.19-10.41,9.52.17,19.05,0,28.58.05a10,10,0,0,0,4.56-.76,7.19,7.19,0,0,0-1.69-.77c-16.2-2.77-28.58-11.44-38.23-23.59-23.45-29.56-27.7-62.75-19.12-98a90,90,0,0,1,20.87-39.69c7.47-8.25,16-15.41,27.2-18.74,5.19-1.54,10.44-3.21,15.79-3.87,7.64-.94,15,1.15,22.24,3.41a58.9,58.9,0,0,1,16.42,8.53c11.08,7.75,19.09,18,24.84,29.55,12.72,25.62,15.12,52.47,8.31,80-4.07,16.42-11.57,31.3-23.77,43.71-6.87,7-14.66,12.9-24.36,16-3.69,1.2-7.4,2.3-11.11,3.44Zm-23,184.89h228.94V7154.46H6915.11Z" transform="translate(-6857.56 -6895.17)"/></svg>