<svg id="js_icon" data-name="js icon" xmlns="http://www.w3.org/2000/svg" viewBox="0 0 196.31 268"><title>JS_ICON</title><path d="M7118.5,7314.5v-240c2.79-7.58,8.25-12.09,16-14h123c2.33,2.05,4.78,4,7,6.17,15.22,15.15,30.3,30.43,45.64,45.46a14.54,14.54,0,0,1,4.64,11.43c-.13,60.92-.24,121.85.05,182.77.05,11.08-3.6,18.61-14.31,22.17h-168C7125.56,7326.11,7120.79,7321.54,7118.5,7314.5Zm9.39-49.36H7305.1V7123.5c-11.56,0-22.72.11-33.87,0-11.32-.14-18.05-6.42-18.88-17.64-.39-5.3-.3-10.65-.35-16-.05-6.44,0-12.87,0-19.48-1.66-.17-2.62-.35-3.59-.35q-54.73,0-109.46,0c-8.45,0-11.28,3.13-11.28,11.62q0,89.22,0,178.43C7127.68,7261.73,7127.81,7263.35,7127.89,7265.14Zm74,9.41a100.75,100.75,0,0,0-10.19.9,12.8,12.8,0,0,0-10.52,12.25,12.29,12.29,0,0,0,9.16,12.73c3.48.9,7.22.85,10.85,1,3.13.16,6.32.13,6.41,4.4.1,4.65-3.3,4.63-6.61,4.63-5,0-10-.32-15,.24-1.75.2-3.24,2.58-4.86,4,1.3,1.48,2.57,4.19,3.92,4.23,7.28.22,14.67.41,21.84-.61,6-.86,9.89-7.11,9.51-12.94a12.74,12.74,0,0,0-10.73-12,59.82,59.82,0,0,0-8.94-.64c-3.31-.05-6.94,0-7-4.39,0-4.54,3.7-4.83,7.22-4.82,4.83,0,9.69.34,14.46-.18,1.76-.19,3.29-2.43,4.93-3.73-1.61-1.52-3-3.76-4.9-4.38C7209,7274.37,7206,7274.76,7201.9,7274.56Zm-30.2,18.63h.28c0-4,0-8,0-12,0-3-.45-6.08-4.33-6s-4.31,3-4.31,6.08c0,7.66.26,15.34-.17,23-.12,2.12-1.82,5.17-3.6,6-2.94,1.29-4.36-1.32-5.62-4.05-.84-1.83-3.41-4.28-4.92-4.1-3.37.42-3.94,3.47-3.19,6.63,1.49,6.25,7.29,10.85,13.44,10.59a12.8,12.8,0,0,0,12.33-11.63C7172.07,7302.88,7171.7,7298,7171.7,7293.19Z" transform="translate(-7118.5 -7060.5)"/><path d="M7253.54,7181.26c-5.3-5.31-6.27-11.4-6-17.92.35-9.4-.52-10.3-9.49-13.46-1.59-.56-3.6-3.41-3.34-4.83s2.85-3.66,4.6-3.84c8.2-.85,16.77,7.22,17.32,15.91.2,3.15,0,6.32.09,9.48.27,6.06,2.54,8.33,8.34,10.12,2,.62,3.5,2.86,5.23,4.36-1.6,1.57-2.94,3.93-4.86,4.57-6.72,2.24-8.58,4.27-8.73,11.4-.06,2.66.08,5.33-.05,8a17.65,17.65,0,0,1-15.45,16.36c-2.94.29-6,.14-6.67-3.54s1.54-4.88,4.72-5.66c7.07-1.73,8.69-3.82,8.35-11.83C7247.28,7193.29,7248.09,7186.76,7253.54,7181.26Z" transform="translate(-7118.5 -7060.5)"/><path d="M7180,7181.46c5,5.05,5.91,11.38,5.57,18.32-.42,8.47,1.39,10.28,9.28,12.84,1.68.55,2.72,3,4.05,4.65-1.73,1.41-3.37,3.87-5.21,4-8.26.75-16.39-7.18-17.15-16.18-.15-1.82-.06-3.66-.06-5.49,0-10.34-.2-10.43-10-14.27-1.47-.58-3.22-2.85-3.15-4.25s1.94-3.51,3.47-4.08c9.38-3.47,9.93-3.69,9.59-13.92-.3-9.12,2.16-16.5,10.92-20.52a13.37,13.37,0,0,1,7.2-1.25c1.62.25,3.94,2.33,4.11,3.8s-1.62,4.05-3.14,4.66c-9.52,3.82-10.24,4.67-9.9,14.84C7185.86,7172,7185.1,7174.37,7180,7181.46Z" transform="translate(-7118.5 -7060.5)"/><path d="M7216.61,7181.1a8.84,8.84,0,0,1,8.26,12.53,116.15,116.15,0,0,1-8.66,16.15c-1,1.48-4,1.57-6.15,2.3-.57-2.16-2.24-4.86-1.5-6.36,2.27-4.61,2.78-8.23-.22-13.06S7210.5,7181.17,7216.61,7181.1Z" transform="translate(-7118.5 -7060.5)"/><path d="M7216.75,7154.5a8.63,8.63,0,0,1,8.87,8.75,9,9,0,0,1-9.06,9.21,9.16,9.16,0,0,1-9-8.87A9.05,9.05,0,0,1,7216.75,7154.5Z" transform="translate(-7118.5 -7060.5)"/></svg>