<svg id="members_icon" data-name="members icon" xmlns="http://www.w3.org/2000/svg" viewBox="0 0 379.53 378.23"><title>members_icon</title><path d="M7218.22,7424c0-17-1.17-33.23.25-49.24,2.63-29.66,23.49-46.41,47.07-59.63,43.1-24.16,90.39-31.93,139.09-32.31,45.8-.36,90.61,5.78,132.31,26a187,187,0,0,1,35.74,22.74c16.35,13.25,25.5,30.68,24.56,52.63-.56,13-.1,26-.1,39.78Z" transform="translate(-7217.77 -7045.73)"/><path d="M7407.75,7235.2c-52.21.08-95-42.63-94.93-94.84s43-94.83,95.14-94.63c51.66.19,94.13,42.63,94.33,94.26C7502.51,7192.22,7459.9,7235.12,7407.75,7235.2Z" transform="translate(-7217.77 -7045.73)"/></svg>