<svg id="Layer_7" data-name="Layer 7" xmlns="http://www.w3.org/2000/svg" viewBox="0 0 250 249.22"><title>Search_Icon</title><path d="M7309.5,7220.5v15l-14,14h-15c-3.23-2.11-6.85-3.8-9.62-6.4-10.76-10.09-21.27-20.46-31.85-30.74-11.31-11-22.6-22-33.66-32.82a6.45,6.45,0,0,0-1.47.18c-.89.43-1.76.91-2.62,1.38a92.42,92.42,0,0,1-65.64,9.31c-34.53-7.58-58.09-28.32-70.62-61.31-2.51-6.61-3.71-13.72-5.51-20.6v-24c.31-.33.84-.64.89-1,3.23-25.07,15-45.48,34.28-61.5a92.32,92.32,0,0,1,52.21-21.35c24.59-2,47.18,4.16,66.93,19.14,22.21,16.84,34.83,39.5,37.47,67.1,1.91,19.9-1.33,39.21-11.87,56.72-1.79,3-.87,4.93,1.52,6.77a33.54,33.54,0,0,1,3.11,2.43c18,17.54,36.07,35,53.83,52.75C7302.31,7210,7305.65,7215.49,7309.5,7220.5Zm-96.91-124c1.31-30.94-27.05-57.26-56.55-57.32-30.81-.06-57.63,26.27-57.71,57s25.8,57.32,57.09,57.44C7186.47,7153.79,7213.76,7127,7212.59,7096.54Z" transform="translate(-7059.5 -7000.28)"/></svg>