<svg xmlns="http://www.w3.org/2000/svg" viewBox="0 0 735.26 328.57"><defs><style>.cls-1,.cls-2{fill:#fff;}.cls-2{stroke:#000;stroke-miterlimit:10;}.cls-3{fill:#f36f40;}.cls-4{fill:#f8a13b;}.cls-5{font-size:22.24px;}.cls-19,.cls-20,.cls-22,.cls-24,.cls-26,.cls-5,.cls-6{font-family:MyriadPro-Regular, Myriad Pro;}.cls-6{font-size:16.05px;}.cls-7{letter-spacing:-0.01em;}.cls-8{letter-spacing:0em;}.cls-9{letter-spacing:0.01em;}.cls-10{letter-spacing:0em;}.cls-11{letter-spacing:0em;}.cls-12{letter-spacing:0.02em;}.cls-13{letter-spacing:-0.04em;}.cls-14{letter-spacing:0em;}.cls-15{letter-spacing:-0.01em;}.cls-16{letter-spacing:-0.01em;}.cls-17{letter-spacing:-0.01em;}.cls-18{letter-spacing:0.02em;}.cls-19{font-size:29.92px;}.cls-20{font-size:24.23px;}.cls-21{letter-spacing:0em;}.cls-22{font-size:24.3px;}.cls-23{letter-spacing:0.01em;}.cls-24{font-size:16.05px;}.cls-25{letter-spacing:0.02em;}.cls-26{font-size:17.52px;}.cls-27{letter-spacing:-0.03em;}.cls-28{letter-spacing:0em;}.cls-29{letter-spacing:0.01em;}.cls-30{letter-spacing:0.03em;}.cls-31{letter-spacing:-0.01em;}</style></defs><title>web_routes_PHP_js_HTML5_diagram</title><g id="Layer_1" data-name="Layer 1"><path class="cls-1" d="M163.84,342.48h-2.17V267.57H290.86v74.91h-2.72a8.73,8.73,0,0,1,1.27-1c1.09-.62.86-1.67.65-2.49a2.56,2.56,0,0,0-1.4-1.49,9,9,0,0,0-3.59-.58c-2.86.09-5.72,0-8.59,0h-1.07c.07-.35.09-.58.15-.8a4.9,4.9,0,0,0,.4-1.27q0-32.3,0-64.58a2.28,2.28,0,0,0-2.36-2.35H178.28a2.15,2.15,0,0,0-2.31,2.39q0,20.18,0,40.34,0,12.12,0,24.25a2.92,2.92,0,0,0,.09,1.15c.38.88.42.81-.6.88-3.86.25-7.76-.58-11.59.45a3.37,3.37,0,0,0-2,2.25,2.94,2.94,0,0,0,1.62,2.35C163.66,342.05,163.73,342.31,163.84,342.48Z" transform="translate(-13.83 -127.83)"/><path d="M163.84,342.48c-.11-.17-.18-.43-.33-.49a2.94,2.94,0,0,1-1.62-2.35,3.37,3.37,0,0,1,2-2.25c3.83-1,7.73-.2,11.59-.45,1-.07,1,0,.6-.88a2.92,2.92,0,0,1-.09-1.15q0-12.14,0-24.25,0-20.16,0-40.34a2.15,2.15,0,0,1,2.31-2.39h95.34a2.28,2.28,0,0,1,2.36,2.35q0,32.28,0,64.58a4.9,4.9,0,0,1-.4,1.27c-.06.22-.08.45-.15.8h1.07c2.87,0,5.73.06,8.59,0a9,9,0,0,1,3.59.58,2.56,2.56,0,0,1,1.4,1.49c.21.82.44,1.87-.65,2.49a8.73,8.73,0,0,0-1.27,1Zm108-9.06V271.9H180.14v61.52Zm-37.93,5.49a8.21,8.21,0,0,0-1.73-.4c-3.19,0-6.37,0-9.56,0-1,0-2.11,0-3.16,0a1,1,0,0,0-.72.39c-.11.27-.13.81,0,.93a2.44,2.44,0,0,0,1.36.56c3.73.05,7.46,0,11.19.05A2.42,2.42,0,0,0,233.89,338.91Z" transform="translate(-13.83 -127.83)"/><path class="cls-1" d="M271.82,333.42H180.14V271.9h91.68Z" transform="translate(-13.83 -127.83)"/><path class="cls-1" d="M233.89,338.91a2.42,2.42,0,0,1-2.58,1.54c-3.73-.06-7.46,0-11.19-.05a2.44,2.44,0,0,1-1.36-.56c-.17-.12-.15-.66,0-.93a1,1,0,0,1,.72-.39c1.05,0,2.11,0,3.16,0,3.19,0,6.37,0,9.56,0A8.21,8.21,0,0,1,233.89,338.91Z" transform="translate(-13.83 -127.83)"/></g><g id="Layer_3" data-name="Layer 3"><rect class="cls-2" x="0.5" y="162.07" width="88.5" height="38.5" rx="12" ry="12"/></g><g id="Layer_4" data-name="Layer 4"><rect class="cls-2" x="27.17" y="273.76" width="88.5" height="38.5" rx="12" ry="12"/><path class="cls-3" d="M211.22,344.16c-2.62,3.47-4.95,6.7-7.39,10s-4.82,6.52-7.25,9.71-4.9,6.34-7.39,9.28c-1.22,1.42-2.51,2.9-3.61,4l-.41.4-.2.2c-.07.07-.09.06-.14.1l-.22.19a1.52,1.52,0,0,1-.33.26l-2.5,1.71c-6.68,4.55-13.51,9.06-20.32,13.63l-10.22,6.92-5,3.42-3-4.28c-3.83,8-7.62,16.15-10.78,24.34,8.66-1.36,17.2-2.09,25.82-2.76l-3-4.28,4.85-3.35,10.1-6.83c6.76-4.55,13.58-9,20.42-13.7l2.56-1.76c.16-.09.59-.43.89-.66l1-.78c.14-.13.34-.28.45-.39l.35-.33.69-.67c1.83-1.78,3.22-3.41,4.66-5.08,2.8-3.31,5.36-6.6,7.9-9.91s5-6.63,7.42-9.94,4.88-6.68,7.19-9.73Z" transform="translate(-13.83 -127.83)"/><path class="cls-3" d="M174.09,302.49a23.86,23.86,0,0,0-7.61-1.27,22.6,22.6,0,0,0-7.68,1.36,30.41,30.41,0,0,0-11.39,7.69,49.48,49.48,0,0,0-7.22,9.82c-.49.87-1,1.76-1.41,2.68s-.88,1.85-1.33,3l-.17.46-.19.56-.09.29-.14.49-.11.51a.14.14,0,0,1,0,.06.89.89,0,0,0-.08.29,2.68,2.68,0,0,1-.25.47,4.71,4.71,0,0,1-1.32,1.21,15.56,15.56,0,0,1-2.86,1.27,34.09,34.09,0,0,1-8.05,1.33,65.77,65.77,0,0,1-9.06-.21c-.77-.06-1.53-.15-2.3-.24l-.86-.11-.32,0-1.29-.19.79-5.16A74,74,0,0,1,99.89,331a47.14,47.14,0,0,1-12.38,2,53,53,0,0,0,8.64,10.61,92.89,92.89,0,0,0,11,9.15l.79-5.16,1.55.22.39.06,1,.12c.92.12,1.85.22,2.78.3a81,81,0,0,0,11.37.25,49,49,0,0,0,12.06-2.08,30.6,30.6,0,0,0,6.44-3,20.48,20.48,0,0,0,6-5.79,18.94,18.94,0,0,0,2.05-4.07c.22-.71.43-1.44.61-2.17l0-.14,0-.06v0c5.24,1-7.15-1.46-5.76-1.18q1,.17,1.95.42c.65.17,1.27.37,1.92.59l1.81.53v0l.06-.15c.16-.43.45-1.07.74-1.67s.63-1.23,1-1.84a33.37,33.37,0,0,1,4.84-6.64,14.61,14.61,0,0,1,5.33-3.76,6.89,6.89,0,0,1,4.76,0Z" transform="translate(-13.83 -127.83)"/><path class="cls-3" d="M165.9,269.64a.78.78,0,0,1,.4-.05h-.13l-.24,0c-.26,0-.82-.11-1.28-.19s-1-.19-1.56-.3-1.09-.23-1.66-.36c-2.24-.51-4.57-1.12-6.91-1.75-4.69-1.27-9.38-2.65-14.28-4l-1.89-.52-1-.25-1.15-.28-1.49-.37a11,11,0,0,1-1.4-.41l-1.41-.46-1.42-.58c-.95-.35-1.9-.88-2.85-1.31a62.07,62.07,0,0,1-5.65-3.32c-2.37-1.58-2.41-1.67-3.26-2.26l3.08-4.21c-7.89-.34-16.38-2.14-24.81-4.46a128.16,128.16,0,0,0,9.26,25.68l3.09-4.21,1.27.9c.13.09,1.56,1.13,2.66,1.82a76.38,76.38,0,0,0,7.18,4.21c1.3.6,2.54,1.27,3.91,1.8l2,.81,2.12.71a21.17,21.17,0,0,0,2.18.63l2.11.53.67.16.81.21,1.7.47c4.67,1.3,9.49,2.73,14.38,4,2.46.67,4.92,1.32,7.52,1.91.65.15,1.29.3,2,.43s1.33.28,2.1.4,1.42.26,2.4.34l.69.06.34,0,.17,0h.28c.76,0,1.51,0,2.26-.1Z" transform="translate(-13.83 -127.83)"/><path class="cls-3" d="M202.83,260.45c-3.76-9.31-5.79-19.85-6.93-30.59-.61-5.37-1-10.84-1.22-16.33-.27-5.1-.41-12.66-.42-12.92l5.23-.11c-4.54-7.36-9-15-13.48-22.5-4.25,7.66-8.6,15.22-12.83,23l5.22-.1.11,4.76c.09,2.85.18,5.71.32,8.58.28,5.73.65,11.5,1.3,17.3a162.13,162.13,0,0,0,2.75,17.48,105.31,105.31,0,0,0,5.31,17.5Z" transform="translate(-13.83 -127.83)"/></g><g id="Layer_6" data-name="Layer 6"><g id="jQVFQG.tif"><path d="M554.38,323.65v-6.23H514.13c-5.36,0-8.77-3.41-8.78-8.79q0-5.1,0-10.22a8.2,8.2,0,0,1,8.56-8.5q19.37,0,38.73,0h1.71v-6.23H514c-4,0-7.07-2.11-8.19-5.68a9.45,9.45,0,0,1-.42-2.75c-.05-3.54,0-7.08,0-10.61a8.16,8.16,0,0,1,8.46-8.47h85.12c5.1,0,8.56,3.5,8.57,8.61q0,5.12,0,10.22c0,5.19-3.47,8.68-8.63,8.68H558.52v6.22h40.16c5.44,0,8.84,3.42,8.83,8.87,0,3.37,0,6.73,0,10.1a8.16,8.16,0,0,1-8.51,8.54q-19.43,0-38.86,0h-1.61v6.23h40.29c5.27,0,8.68,3.45,8.69,8.74q0,5.18,0,10.35a8.18,8.18,0,0,1-8.39,8.41H513.73a8.17,8.17,0,0,1-8.38-8.29q0-5.43,0-10.86a8.14,8.14,0,0,1,8.43-8.36h40.6Zm9.19-58.29h-47v10.12h47Zm0,33.75h-47v10.12h47Zm-47,32.68V342h46.93V331.79Zm61.75-56.71a5.16,5.16,0,1,0-5.09-5.25A5.14,5.14,0,0,0,578.34,275.08Zm15.36,0a5.16,5.16,0,1,0-5.11-5.24A5.14,5.14,0,0,0,593.7,275.08Zm-15.31,33.75a5.16,5.16,0,1,0-5.14-5.22A5.15,5.15,0,0,0,578.39,308.83Zm20.52-5.14a5.16,5.16,0,1,0-5.22,5.14A5.13,5.13,0,0,0,598.91,303.69ZM578.4,332.26a5.15,5.15,0,1,0,5.16,5.18A5.08,5.08,0,0,0,578.4,332.26Zm15.3,0a5.15,5.15,0,1,0,5.2,5.14A5.1,5.1,0,0,0,593.7,332.26Z" transform="translate(-13.83 -127.83)"/></g></g><g id="Layer_12" data-name="Layer 12"><path class="cls-4" d="M412.41,226.08a17.32,17.32,0,0,1,0,5.4l-.43,3.93c-.15,1.42-.28,2.84-.37,4.26a111.14,111.14,0,0,0,.09,17.21,87.53,87.53,0,0,0,9.51,33.61,70.67,70.67,0,0,0,23.79,26.56,47.08,47.08,0,0,0,8.54,4.41,33,33,0,0,0,10.23,2.27,27.75,27.75,0,0,0,5.66-.3l1.42-.27.57-.13.5-.13c.65-.17,1.28-.36,1.88-.57l1.67,4.95a26.85,26.85,0,0,0,5.24-5.79l3.74-5.41L492,305.26l-13.11-1.06-6.55-.53a11.68,11.68,0,0,1-5.23-1.31l1.68,4.95c-.31.1-.59.19-.86.26l-.2.05-.22.05-.55.1a11.57,11.57,0,0,1-2.31.12c-3.27-.14-7.25-1.75-10.95-4.16a55,55,0,0,1-18.38-20.64,71.68,71.68,0,0,1-7.73-27.56,95.52,95.52,0,0,1-.08-14.75c.09-1.23.2-2.47.33-3.7l.44-4a32.13,32.13,0,0,0-.38-10.52Z" transform="translate(-13.83 -127.83)"/></g><g id="Layer_7" data-name="Layer 7"><g id="_9PqARe.tif" data-name="9PqARe.tif"><path class="cls-1" d="M325.18,204.73v-76.9h175v76.22a5.42,5.42,0,0,1-.35-1c-1.93-10.37-9.14-17.87-19.46-19.95-1.76-.36-2.19-.91-2.15-2.7a24.31,24.31,0,0,0-27.59-24.92,2.21,2.21,0,0,1-2.78-1.53c-6.87-14.89-18.55-23.17-35-23.23s-28.28,8.16-35.24,23.1c-.74,1.6-1.5,1.84-3,1.63a24.35,24.35,0,0,0-27.2,21.08c-.24,2-.25,4-.37,6.14-.26.06-.53.13-.81.17a24.53,24.53,0,0,0-20.56,19.71C325.53,203.32,325.34,204,325.18,204.73Z" transform="translate(-13.83 -127.83)"/><path d="M325.18,204.73c.16-.71.35-1.41.49-2.13a24.53,24.53,0,0,1,20.56-19.71c.28,0,.55-.11.81-.17.12-2.09.13-4.13.37-6.14a24.35,24.35,0,0,1,27.2-21.08c1.54.21,2.3,0,3-1.63,7-14.94,18.74-23.16,35.24-23.1s28.09,8.34,35,23.23a2.21,2.21,0,0,0,2.78,1.53,24.31,24.31,0,0,1,27.59,24.92c0,1.79.39,2.34,2.15,2.7,10.32,2.08,17.53,9.58,19.46,19.95a5.42,5.42,0,0,0,.35,1v6.15c-.31,1.21-.59,2.42-.93,3.62a24.42,24.42,0,0,1-23.56,17.87c-7.58,0-15.15,0-22.73,0h-1.78v-5.34h1.95c7.52,0,15,0,22.56,0a19.15,19.15,0,0,0,6.83-37.06,26.76,26.76,0,0,0-7-1.3c-2.57-.23-3.59-1.32-3.06-3.85,2.63-12.77-6.72-24-19.68-23.51a24.55,24.55,0,0,0-4.69.83c-2.14.51-3.26-.05-3.93-2.11-4.88-14.94-17.8-24-33.34-23.33-13.23.55-25.21,9.8-29.38,22.68-.95,3-1.73,3.37-4.79,2.56A19.19,19.19,0,0,0,352.93,184c.6,2.76-.36,3.95-3.2,4a19.21,19.21,0,0,0-.15,38.41c7.58.08,15.15,0,22.73,0h1.94v5.33h-1.77c-7.75,0-15.5,0-23.24,0a24.59,24.59,0,0,1-23.67-20.53c-.08-.56-.26-1.09-.39-1.64Z" transform="translate(-13.83 -127.83)"/><path d="M412.53,141.73v5a22.51,22.51,0,0,0-21.88,22.05h-5C384.87,155,397.47,141.27,412.53,141.73Z" transform="translate(-13.83 -127.83)"/></g><path class="cls-3" d="M277.89,328.42l4.92.11c1.64,0,3.27.14,4.93.05,3.31-.13,6.6-.1,9.93-.47,1.66-.15,3.32-.26,5-.45l5-.73c1.67-.2,3.32-.59,5-.94s3.32-.64,4.95-1.16l4.93-1.4,4.85-1.75,1.21-.44,1.18-.53,2.37-1c.78-.37,1.59-.69,2.36-1.09l2.29-1.23a80.22,80.22,0,0,0,16.87-12.11,97,97,0,0,0,13.28-15.49,167.59,167.59,0,0,0,10.18-16.87c3.05-5.68,5.83-11.33,8.67-16.77q1.06-2.06,2.14-4l.92-1.68.67-1.18,4.54,2.57c-.2-4.16-.24-8.15,0-12.3A59.09,59.09,0,0,1,396,227a65.58,65.58,0,0,0-12.72,4.83c-4.12,2.08-8.27,4.49-12.15,7l4.55,2.58-.75,1.3-1,1.81c-.79,1.43-1.54,2.85-2.27,4.27-3,5.66-5.71,11.24-8.59,16.61C357.38,276.08,351,286,342.79,293.64a67,67,0,0,1-29.28,15.86c-1.35.44-2.79.64-4.19,1s-2.8.63-4.25.8l-4.3.64c-1.45.17-2.92.26-4.38.39-2.9.33-5.88.29-8.83.41-1.47.09-3,0-4.46,0l-4.47-.1Z" transform="translate(-13.83 -127.83)"/></g><g id="Layer_5" data-name="Layer 5"><rect class="cls-2" x="114.7" y="7.93" width="88.5" height="38.5" rx="12" ry="12"/></g><g id="Layer_8" data-name="Layer 8"><rect class="cls-2" x="594.4" y="32.24" width="88.5" height="38.5" rx="12" ry="12"/></g><g id="Layer_9" data-name="Layer 9"><rect class="cls-2" x="549.45" y="282.68" width="88.5" height="38.5" rx="12" ry="12"/><path class="cls-4" d="M606.38,252.46c2.94-5,6.2-10.08,9.59-15.07q2.53-3.75,5.15-7.47l4.61-6.49,4.24,3c.8-8.62,1.78-17.29,2.87-26-8.08,3.39-16.15,6.91-24.22,10.62l4.24,3-4.72,6.63q-2.68,3.81-5.31,7.7c-3.51,5.18-6.93,10.44-10.19,16Z" transform="translate(-13.83 -127.83)"/><path class="cls-4" d="M616,310.21a19.4,19.4,0,0,0,5.06-.15,29.63,29.63,0,0,0,4.14-1c1.2-.36,2.25-.72,3.15-1s1.76-.54,2.66-.78c3.62-1,7.57-1.7,11.75-2.5,2.09-.4,4.25-.82,6.45-1.32,1.1-.26,2.22-.54,3.33-.83l3-.77c3.81-1,9.2-2.38,10.08-2.63l1.38,5c3.23-3.15,6.45-6.37,9.55-9.72,1.54-1.67,3.06-3.41,4.49-5.17a38.08,38.08,0,0,0,3.83-5.57,35.81,35.81,0,0,1-6.35-.51c-2.08-.34-4.13-.75-6.18-1.22-4.1-.93-8.18-2-12.27-3.18l1.38,5c-.84.24-6,1.6-9.85,2.57l-3.12.81c-.92.24-1.84.47-2.78.69-1.9.43-3.87.82-5.9,1.21-4.06.78-8.4,1.55-12.9,2.76-1.12.3-2.27.64-3.38,1s-2,.68-2.85.92a14.87,14.87,0,0,1-2,.48,4.22,4.22,0,0,1-1.22,0Z" transform="translate(-13.83 -127.83)"/><path class="cls-4" d="M544.48,357.83a24,24,0,0,0,.46,2.39,18.81,18.81,0,0,0,.77,2.3,16.51,16.51,0,0,0,1.11,2.23l.67,1.11.74,1a24.92,24.92,0,0,0,6.62,5.86A41.72,41.72,0,0,0,561.6,376c2.19.86,4.49,1.55,6.39,2.11a168.13,168.13,0,0,0,24.8,5.59,104.08,104.08,0,0,0,13.05,1,78.63,78.63,0,0,0,13.36-.92,125.2,125.2,0,0,0,12.67-2.65c1-.26,2.06-.55,3.08-.84l1.47-.41,1.44-.44,1.51,5a154.55,154.55,0,0,0,17.47-20.66,142.67,142.67,0,0,1-25.07-4.52l1.51,5-1.31.39-1.32.38c-.93.25-1.85.52-2.77.75a112.14,112.14,0,0,1-11,2.32,63.75,63.75,0,0,1-10.79.74,89.16,89.16,0,0,1-11.1-.87,152.82,152.82,0,0,1-22.45-5.08c-2-.58-3.55-1.06-5.11-1.68a25.52,25.52,0,0,1-4.12-2,9.25,9.25,0,0,1-2.45-2.08l-.18-.21a1.86,1.86,0,0,0-.1-.2,2.36,2.36,0,0,1-.24-.48,3.8,3.8,0,0,1-.29-1.16Z" transform="translate(-13.83 -127.83)"/><path class="cls-4" d="M508.39,353a53.5,53.5,0,0,1-4.91,12.25c-2.25,4.4-4.8,8.95-7.19,13.92s-4.69,10.41-5.51,17.2a20.44,20.44,0,0,0-.15,2.63c0,.87,0,1.89,0,2.47.07,1.35.16,2.71.28,4.1a80.65,80.65,0,0,0,1.13,8.48,54.61,54.61,0,0,0,2.38,8.69,47.41,47.41,0,0,0,4.07,8.35A48.11,48.11,0,0,0,511,444.58a46,46,0,0,0,8,4.74,27.4,27.4,0,0,0,10.47,2.42,41.9,41.9,0,0,0,4.81-.12l1.12-.11.46,0,.4-.05,1.58-.2.7,5.18c.52-.35,1-.7,1.47-1s1.3-.77,1.85-1.17a33.64,33.64,0,0,0,3.15-2.45,50.94,50.94,0,0,0,5.28-5.32,40.11,40.11,0,0,0,4.28-5.94,14.93,14.93,0,0,0,2.27-6.65A12,12,0,0,1,551,435a31.91,31.91,0,0,1-5.79-.68,35.76,35.76,0,0,1-5.47-1.57,16.93,16.93,0,0,1-2.38-1.11,8.28,8.28,0,0,1-1-.66c-.45-.22-.94-.42-1.36-.64l.7,5.17-1.26.16-.31,0-1.13.1a22.53,22.53,0,0,1-2.91.08,11.52,11.52,0,0,1-4.5-1,31.15,31.15,0,0,1-5.24-3.11,32.46,32.46,0,0,1-8.35-9.05,31.24,31.24,0,0,1-2.68-5.52,38.68,38.68,0,0,1-1.69-6.19,65.14,65.14,0,0,1-.9-6.83c-.1-1.18-.18-2.38-.25-3.6a12.26,12.26,0,0,1,0-1.4,6.51,6.51,0,0,1,.06-1.22c.39-3.47,1.95-7.71,4.05-12s4.55-8.77,7-13.53l1.81-3.67c.58-1.31,1.19-2.51,1.73-3.9l.82-2c.26-.7.5-1.44.74-2.17A46.59,46.59,0,0,0,524,356Z" transform="translate(-13.83 -127.83)"/></g><g id="Layer_11" data-name="Layer 11"><rect class="cls-2" x="643.16" y="110.33" width="88.5" height="38.5" rx="12" ry="12"/></g><g id="Layer_10" data-name="Layer 10"><rect class="cls-2" x="646.26" y="205.66" width="88.5" height="38.5" rx="12" ry="12"/></g><g id="Layer_2" data-name="Layer 2"><rect class="cls-2" x="27.81" y="74.53" width="88.5" height="38.5" rx="12" ry="12"/></g><g id="Layer_13" data-name="Layer 13"><text class="cls-5" transform="translate(123.85 31.9)">WEBGL</text><text class="cls-5" transform="translate(39.85 99.24)">HTML5</text><text class="cls-5" transform="translate(31.85 187.24)">CSS</text><text class="cls-6" transform="translate(39.85 289.39)">J<tspan class="cls-7" x="5.94" y="0">a</tspan><tspan class="cls-8" x="13.55" y="0">v</tspan><tspan x="21.2" y="0">a</tspan><tspan class="cls-9" x="28.94" y="0">S</tspan><tspan x="36.95" y="0">c</tspan><tspan class="cls-10" x="44.14" y="0">r</tspan><tspan x="49.46" y="0">ipt</tspan><tspan x="0" y="19.26">J</tspan><tspan class="cls-11" x="5.94" y="19.26">Q</tspan><tspan x="17.05" y="19.26">ue</tspan><tspan class="cls-12" x="33.93" y="19.26">r</tspan><tspan x="39.58" y="19.26">y</tspan></text><text class="cls-5" transform="translate(172.52 169.24)"><tspan xml:space="preserve">  </tspan><tspan class="cls-13" x="9.43" y="0"> </tspan><tspan class="cls-14" x="13.34" y="0">WEB</tspan><tspan x="0" y="26.69">B</tspan><tspan class="cls-15" x="12.05" y="26.69">r</tspan><tspan class="cls-16" x="19.1" y="26.69">o</tspan><tspan class="cls-17" x="31.16" y="26.69">w</tspan><tspan x="47.39" y="26.69">ser</tspan></text><text class="cls-5" transform="translate(353.85 77.24)">INTERN<tspan class="cls-18" x="68.54" y="0">E</tspan><tspan x="79.83" y="0">T</tspan></text><text class="cls-19" transform="translate(664.52 235)">PHP</text><text class="cls-20" transform="translate(555.18 310.91)"><tspan class="cls-21">A</tspan><tspan x="14.76" y="0">pache</tspan></text><text class="cls-22" transform="translate(649.85 137.63)"><tspan class="cls-23">M</tspan><tspan x="19.7" y="0">ySQL</tspan></text><text class="cls-24" transform="translate(604.52 47.39)"><tspan xml:space="preserve">  SE</tspan><tspan class="cls-25" x="22.62" y="0">R</tspan><tspan x="31.51" y="0">VER </tspan><tspan x="0" y="19.26">MODULES</tspan></text><text class="cls-26" transform="translate(498.85 126.96)"><tspan class="cls-27">W</tspan><tspan class="cls-28" x="14.24" y="0">eb </tspan><tspan class="cls-29" x="36.7" y="0">S</tspan><tspan x="45.45" y="0">e</tspan><tspan class="cls-30" x="54.22" y="0">r</tspan><tspan class="cls-31" x="60.39" y="0">v</tspan><tspan x="68.64" y="0">er</tspan></text></g></svg>